name Walk10.mot
datacolumns 19
datarows 25
range 1.54500000 1.66500000
endheader

                time	   L_ground_force_vx	   L_ground_force_vy	   L_ground_force_vz	   L_ground_force_px	   L_ground_force_py	   L_ground_force_pz	   R_ground_force_vx	   R_ground_force_vy	   R_ground_force_vz	   R_ground_force_px	   R_ground_force_py	   R_ground_force_pz	   L_ground_torque_x	   L_ground_torque_y	   L_ground_torque_z	   R_ground_torque_x	   R_ground_torque_y	   R_ground_torque_z	
          1.54500000	         34.41131134	        931.06860692	         86.19272501	         -0.20038789	          0.00000000	         -0.06981426	         -0.00964934	          0.23004501	          0.01682089	          0.00019478	          0.00000000	          0.00006304	          0.00000000	         -2.23705057	          0.00000000	          0.00000000	          0.00063237	          0.00000000	
          1.55000000	         37.25888592	        940.49601295	         86.79578851	         -0.19873408	          0.00000000	         -0.07015582	         -0.01813837	          0.33947430	          0.02379284	          0.00026437	          0.00000000	          0.00008535	          0.00000000	         -2.24092663	          0.00000000	          0.00000000	          0.00188585	          0.00000000	
          1.55500000	         40.23425463	        950.11095622	         87.29048935	         -0.19713228	          0.00000000	         -0.07045580	         -0.02913902	          0.46824940	          0.03173042	          0.00034030	          0.00000000	          0.00010962	          0.00000000	         -2.25755829	          0.00000000	          0.00000000	          0.00360791	          0.00000000	
          1.56000000	         43.37222955	        959.86038741	         87.66610997	         -0.19558928	          0.00000000	         -0.07071405	         -0.04269954	          0.61131039	          0.04019489	          0.00041673	          0.00000000	          0.00013394	          0.00000000	         -2.28742113	          0.00000000	          0.00000000	          0.00584831	          0.00000000	
          1.56500000	         46.70767611	        969.67622746	         87.91882163	         -0.19411047	          0.00000000	         -0.07093218	         -0.05857949	          0.75900505	          0.04843704	          0.00048451	          0.00000000	          0.00015535	          0.00000000	         -2.33009849	          0.00000000	          0.00000000	          0.00862068	          0.00000000	
          1.57000000	         50.26949531	        979.47701747	         88.05411014	         -0.19269932	          0.00000000	         -0.07111261	         -0.07611787	          0.89571048	          0.05531603	          0.00053046	          0.00000000	          0.00016957	          0.00000000	         -2.38415558	          0.00000000	          0.00000000	          0.01188069	          0.00000000	
          1.57500000	         54.07688692	        989.17317856	         88.08734020	         -0.19135661	          0.00000000	         -0.07125922	         -0.09407940	          0.99841989	          0.05922098	          0.00053669	          0.00000000	          0.00017084	          0.00000000	         -2.44696148	          0.00000000	          0.00000000	          0.01549906	          0.00000000	
          1.58000000	         58.13903168	        998.67396261	         88.04216074	         -0.19008106	          0.00000000	         -0.07137711	         -0.11048560	          1.03544965	          0.05800667	          0.00048022	          0.00000000	          0.00015175	          0.00000000	         -2.51531221	          0.00000000	          0.00000000	          0.01923000	          0.00000000	
          1.58500000	         62.45790612	       1007.89219380	         87.94513998	         -0.18886973	          0.00000000	         -0.07147102	         -0.12244313	          0.96549309	          0.04895924	          0.00033293	          0.00000000	          0.00010327	          0.00000000	         -2.58616038	          0.00000000	          0.00000000	          0.02267635	          0.00000000	
          1.59000000	         67.03147715	       1016.74857097	         87.82275024	         -0.18771952	          0.00000000	         -0.07154541	         -0.12598877	          0.73733185	          0.02881282	          0.00006220	          0.00000000	          0.00001493	          0.00000000	         -2.65690935	          0.00000000	          0.00000000	          0.02525389	          0.00000000	
          1.59500000	         71.85722043	       1025.17376972	         87.70025382	         -0.18662764	          0.00000000	         -0.07160525	         -0.11597983	          0.29060811	         -0.00615653	         -0.00036765	          0.00000000	         -0.00012466	          0.00000000	         -2.72535622	          0.00000000	          0.00000000	          0.02615874	          0.00000000	
          1.60000000	         76.93283872	       1033.10477256	         87.60210048	         -0.18559118	          0.00000000	         -0.07165460	         -0.08606851	         -0.44184396	         -0.05992776	         -0.00099260	          0.00000000	         -0.00032697	          0.00000000	         -2.78930755	          0.00000000	          0.00000000	          0.02434364	          0.00000000	
          1.60500000	         82.25457892	       1040.48176912	         87.55147937	         -0.18460652	          0.00000000	         -0.07169667	         -0.02881075	         -1.52952310	         -0.13638674	         -0.00184473	          0.00000000	         -0.00060212	          0.00000000	         -2.84633003	          0.00000000	          0.00000000	          0.01851095	          0.00000000	
          1.61000000	         87.81573666	       1047.24858051	         87.56993146	         -0.18367001	          0.00000000	         -0.07173505	          0.06402901	         -3.03699472	         -0.23879501	         -0.00294601	          0.00000000	         -0.00095692	          0.00000000	         -2.89413603	          0.00000000	          0.00000000	          0.00713265	          0.00000000	
          1.61500000	         93.60597946	       1053.35542171	         87.67664597	         -0.18277784	          0.00000000	         -0.07177337	          0.20090488	         -5.01316866	         -0.36903826	         -0.00430001	          0.00000000	         -0.00139217	          0.00000000	         -2.93085896	          0.00000000	          0.00000000	         -0.01149009	          0.00000000	
          1.62000000	         99.60898542	       1058.75577763	         87.88903781	         -0.18192462	          0.00000000	         -0.07181415	          0.38956912	         -7.47650973	         -0.52662417	         -0.00588108	          0.00000000	         -0.00189921	          0.00000000	         -2.95478847	          0.00000000	          0.00000000	         -0.03911296	          0.00000000	
          1.62500000	        105.79991204	       1063.40358450	         88.22173653	         -0.18110361	          0.00000000	         -0.07185858	          0.63572350	        -10.39573023	         -0.70741288	         -0.00762128	          0.00000000	         -0.00245564	          0.00000000	         -2.96435225	          0.00000000	          0.00000000	         -0.07736377	          0.00000000	
          1.63000000	        112.14243549	       1067.25064399	         88.68426576	         -0.18030758	          0.00000000	         -0.07190611	          0.94116909	        -13.66581799	         -0.90208725	         -0.00939499	          0.00000000	         -0.00302049	          0.00000000	         -2.95856244	          0.00000000	          0.00000000	         -0.12747020	          0.00000000	
          1.63500000	        118.58886805	       1070.24545850	         89.27770537	         -0.17952939	          0.00000000	         -0.07195516	          1.30140216	        -17.07974741	         -1.09440583	         -0.01100220	          0.00000000	         -0.00352878	          0.00000000	         -2.93752678	          0.00000000	          0.00000000	         -0.18988448	          0.00000000	
          1.64000000	        125.08370845	       1072.32767189	         89.99095487	         -0.17876159	          0.00000000	         -0.07200430	          1.70264287	        -20.29694720	         -1.25933256	         -0.01215159	          0.00000000	         -0.00388621	          0.00000000	         -2.90219387	          0.00000000	          0.00000000	         -0.26379397	          0.00000000	
          1.64500000	        131.56853797	       1073.42476934	         90.79795811	         -0.17799638	          0.00000000	         -0.07205291	          2.11834582	        -22.81059976	         -1.36120488	         -0.01244528	          0.00000000	         -0.00396429	          0.00000000	         -2.85450113	          0.00000000	          0.00000000	         -0.34651371	          0.00000000	
          1.65000000	        137.98464820	       1073.45175215	         91.65687475	         -0.17722608	          0.00000000	         -0.07210024	          2.50533304	        -23.91715108	         -1.35218773	         -0.01136841	          0.00000000	         -0.00359715	          0.00000000	         -2.79734478	          0.00000000	          0.00000000	         -0.43277033	          0.00000000	
          1.65500000	        144.27762347	       1072.31168887	         92.51087469	         -0.17644351	          0.00000000	         -0.07214442	          2.79981514	        -22.69302843	         -1.17136384	         -0.00828711	          0.00000000	         -0.00258100	          0.00000000	         -2.73455723	          0.00000000	          0.00000000	         -0.51390441	          0.00000000	
          1.66000000	        150.40105802	       1069.89653270	         93.29175201	         -0.17564275	          0.00000000	         -0.07218263	          2.91372873	        -17.98546877	         -0.74492869	         -0.00246017	          0.00000000	         -0.00067813	          0.00000000	         -2.67024824	          0.00000000	          0.00000000	         -0.57704442	          0.00000000	
          1.66500000	        156.31733130	       1066.08937680	         93.92584571	         -0.17481878	          0.00000000	         -0.07221070	          2.73201871	         -8.42648243	          0.01191625	          0.00692966	          0.00000000	          0.00237280	          0.00000000	         -2.60842729	          0.00000000	          0.00000000	         -0.60433788	          0.00000000	
